<svg width="18" height="18" viewBox="0 0 18 18" fill="none" xmlns="http://www.w3.org/2000/svg">
<path opacity="0.5" fill-rule="evenodd" clip-rule="evenodd" d="M3 0C1.34315 0 0 1.34315 0 3V15C0 16.6569 1.34315 18 3 18H15C16.6569 18 18 16.6569 18 15V3C18 1.34315 16.6569 0 15 0H3ZM10 4C10 3.44771 9.55228 3 9 3C8.44771 3 8 3.44772 8 4L7.99057 8H4C3.44771 8 3 8.44772 3 9C3 9.55228 3.44771 10 4 10H8L7.99057 14C7.99057 14.5523 8.44772 15 9 15C9.55228 15 10 14.5523 10 14V10H14C14.5523 10 15 9.55228 15 9C15 8.44771 14.5523 8 14 8H10V4Z" fill="#5E1C1C"/>
</svg>
