<svg width="45" height="45" viewBox="0 0 45 45" fill="none" xmlns="http://www.w3.org/2000/svg">
<path fill-rule="evenodd" clip-rule="evenodd" d="M22.5 45C34.9264 45 45 34.9264 45 22.5C45 10.0736 34.9264 0 22.5 0C10.0736 0 0 10.0736 0 22.5C0 34.9264 10.0736 45 22.5 45ZM21.9433 12.0184C21.125 11.0832 19.7036 10.9884 18.7684 11.8067C17.8332 12.625 17.7384 14.0464 18.5567 14.9816L25.1353 22.5L18.5567 30.0184C17.7384 30.9535 17.8332 32.375 18.7684 33.1933C19.7036 34.0116 21.125 33.9168 21.9433 32.9816L31.1148 22.5L21.9433 12.0184Z" fill="#FF8585"/>
</svg>
