<svg width="45" height="45" viewBox="0 0 45 45" fill="none" xmlns="http://www.w3.org/2000/svg">
<path fill-rule="evenodd" clip-rule="evenodd" d="M22.5 45C10.0736 45 0 34.9264 0 22.5C0 10.0736 10.0736 0 22.5 0C34.9264 0 45 10.0736 45 22.5C45 34.9264 34.9264 45 22.5 45ZM23.0567 12.0184C23.875 11.0832 25.2964 10.9884 26.2316 11.8067C27.1668 12.625 27.2616 14.0464 26.4433 14.9816L19.8647 22.5L26.4433 30.0184C27.2616 30.9535 27.1668 32.375 26.2316 33.1933C25.2964 34.0116 23.875 33.9168 23.0567 32.9816L13.8852 22.5L23.0567 12.0184Z" fill="#FF8585"/>
</svg>
