<svg width="50" height="50" viewBox="0 0 50 50" fill="none" xmlns="http://www.w3.org/2000/svg">
<path fill-rule="evenodd" clip-rule="evenodd" d="M43.7499 26.7315C43.7499 30.2827 41.44 33.2623 38.2812 34.2663V37.4999C43.1955 36.4186 46.8749 32.0081 46.8749 26.7315C46.8749 20.6441 41.978 15.7094 35.9374 15.7094C35.6275 15.7094 35.3207 15.7224 35.0173 15.7478C32.7758 9.30643 26.6888 4.6875 19.5312 4.6875C10.4703 4.6875 3.125 12.0896 3.125 21.2206C3.125 28.1215 7.32049 34.0349 13.2812 36.5118V33.0534C9.10333 30.7999 6.25 26.3563 6.25 21.2206C6.25 13.7928 12.2189 7.8125 19.5312 7.8125C25.1928 7.8125 30.049 11.3974 31.9531 16.4636L31.9661 16.4584C32.3272 17.4362 32.5804 18.4678 32.7108 19.5382C33.696 19.0858 34.7891 18.8344 35.9374 18.8344C40.2295 18.8344 43.7499 22.3473 43.7499 26.7315ZM35.9375 28.125H20.3125V31.25H35.9375V28.125ZM32.8125 34.375H17.1875V37.5H32.8125V34.375ZM20.3125 40.625H35.9375V43.75H20.3125V40.625Z" fill=""/>
</svg>
