<svg width="98" height="98" viewBox="0 0 98 98" fill="none" xmlns="http://www.w3.org/2000/svg">
<rect y="0.0324707" width="97.8244" height="97.8244" rx="17" fill="#FD4859"/>
<ellipse cx="48.9123" cy="48.496" rx="30.8919" ry="32.309" stroke="white" stroke-width="4"/>
<path d="M56.11 60.2322H41.7409C39.7553 60.2322 38.1331 58.5356 38.1331 56.4589V41.4306C38.1331 39.3539 39.7553 37.6573 41.7409 37.6573H56.11C58.0956 37.6573 59.7178 39.3539 59.7178 41.4306V56.4589C59.7178 58.5449 58.1045 60.2322 56.11 60.2322Z" stroke="white" stroke-width="4"/>
<path d="M45.0118 53.0472C46.0578 54.1412 47.4495 54.7438 48.9298 54.7438C50.4102 54.7438 51.793 54.1412 52.8479 53.0472C53.8939 51.9532 54.4701 50.4977 54.4701 48.9494C54.4701 47.4011 53.8939 45.9456 52.8479 44.8516C51.8019 43.7576 50.4102 43.155 48.9298 43.155C47.4495 43.155 46.0578 43.7576 45.0118 44.8516C43.9658 45.9456 43.3896 47.4011 43.3896 48.9494C43.3896 50.4977 43.9658 51.9532 45.0118 53.0472Z" stroke="white" stroke-width="4"/>
<path d="M55.5501 42.9646C56.1376 42.9646 56.6138 42.4665 56.6138 41.852C56.6138 41.2376 56.1376 40.7395 55.5501 40.7395C54.9626 40.7395 54.4863 41.2376 54.4863 41.852C54.4863 42.4665 54.9626 42.9646 55.5501 42.9646Z" stroke="white" stroke-width="4"/>
</svg>
