<svg width="50" height="50" viewBox="0 0 50 50" fill="none" xmlns="http://www.w3.org/2000/svg">
<path fill-rule="evenodd" clip-rule="evenodd" d="M23.4375 7.8125V3.125H26.5625V7.8125H23.4375ZM35.7217 34.0998C36.8328 35.4492 37.5 37.1779 37.5 39.0623C37.5 43.377 34.0023 46.8748 29.6875 46.8748L29.6302 46.8746H18.0293V46.8745L17.9688 46.8746C11.4967 46.8746 6.25 41.628 6.25 35.1559C6.25 31.3128 8.09996 27.9017 10.9579 25.7647C10.9444 25.5115 10.9375 25.2566 10.9375 25C10.9375 17.2335 17.2335 10.9375 25 10.9375C32.7665 10.9375 39.0625 17.2335 39.0625 25C39.0625 28.4704 37.8054 31.6471 35.7217 34.0998ZM33.2941 32.1303C32.2152 31.5678 30.9885 31.2498 29.6875 31.2498C28.3664 31.2498 27.1219 31.5777 26.031 32.1566C26.3789 33.0904 26.569 34.1011 26.569 35.1562C26.569 35.2954 26.5657 35.4338 26.5592 35.5714C27.3889 34.8274 28.4854 34.3748 29.6875 34.3748C32.2764 34.3748 34.375 36.4735 34.375 39.0623C34.375 41.6512 32.2764 43.7498 29.6875 43.7498V43.7496H29.6432L29.5831 43.7487H18.0989C18.0556 43.7493 18.0122 43.7496 17.9688 43.7496C13.2226 43.7496 9.375 39.9021 9.375 35.1559C9.375 30.4097 13.2226 26.5621 17.9688 26.5621C21.661 26.5621 24.8094 28.8906 26.0256 32.1593C26.9352 31.6758 27.9516 31.3668 29.0303 31.277C27.4293 26.7112 23.0814 23.4371 17.9688 23.4371C16.613 23.4371 15.311 23.6674 14.0997 24.0909C14.5618 18.4756 19.2655 14.0625 25 14.0625C31.0406 14.0625 35.9375 18.9594 35.9375 25C35.9375 27.7241 34.9416 30.2156 33.2941 32.1303ZM46.875 23.4375H42.1875V26.5625H46.875V23.4375ZM39.1035 15.0531L43.163 12.7093L44.7255 15.4157L40.666 17.7594L39.1035 15.0531ZM34.5844 5.27458L32.2407 9.33408L34.947 10.8966L37.2908 6.83708L34.5844 5.27458ZM15.0531 10.8966L12.7093 6.83708L15.4157 5.27458L17.7594 9.33408L15.0531 10.8966ZM5.27449 15.4157L9.33398 17.7594L10.8965 15.0531L6.83699 12.7093L5.27449 15.4157ZM3.125 23.4375H7.8125V26.5625H3.125V23.4375ZM39.1036 34.9469L43.1631 37.2907L44.7256 34.5843L40.6661 32.2406L39.1036 34.9469Z" fill="#AF807B"/>
</svg>
