<svg width="417" height="20" viewBox="0 0 417 20" fill="none" xmlns="http://www.w3.org/2000/svg">
<path d="M1 9.7C1.1 14.7 5.5 19.1 10.3 18.7C15.9 18.4 19.5 14.6 19.6 9.4C19.7 4.3 15.4 0.2 10.3 0.2C5.2 0.2 0.9 4.5 1 9.7ZM67.1133 9.7C67.2133 14.7 71.6133 19.1 76.4133 18.7C82.0133 18.4 85.6133 14.6 85.7133 9.4C85.8133 4.3 81.5133 0.2 76.4133 0.2C71.3133 0.2 67.0133 4.5 67.1133 9.7ZM133.227 9.7C133.327 14.7 137.727 19.1 142.527 18.7C148.127 18.4 151.727 14.6 151.827 9.4C151.927 4.3 147.627 0.2 142.527 0.2C137.427 0.2 133.127 4.5 133.227 9.7ZM199.34 9.7C199.44 14.7 203.84 19.1 208.64 18.7C214.24 18.4 217.84 14.6 217.94 9.4C218.04 4.3 213.74 0.2 208.64 0.2C203.54 0.2 199.24 4.5 199.34 9.7ZM265.453 9.7C265.553 14.7 269.953 19.1 274.753 18.7C280.353 18.4 283.953 14.6 284.053 9.4C284.153 4.3 279.853 0.2 274.753 0.2C269.653 0.2 265.353 4.5 265.453 9.7ZM331.566 9.7C331.666 14.7 336.066 19.1 340.866 18.7C346.466 18.4 350.066 14.6 350.166 9.4C350.266 4.3 345.966 0.2 340.866 0.2C335.766 0.2 331.466 4.5 331.566 9.7ZM397.68 9.7C397.78 14.7 402.18 19.1 406.98 18.7C412.58 18.4 416.18 14.6 416.28 9.4C416.38 4.3 412.08 0.2 406.98 0.2C401.88 0.2 397.58 4.5 397.68 9.7Z" fill="#FFE3DA"/>
</svg>
