<svg width="50" height="50" viewBox="0 0 50 50" fill="none" xmlns="http://www.w3.org/2000/svg">
<path fill-rule="evenodd" clip-rule="evenodd" d="M46.875 26.5625C46.875 32.192 42.7735 36.8281 37.5 37.4331V34.2765C40.9695 33.6899 43.75 30.5448 43.75 26.5625C43.75 22.14 40.3208 18.75 36.327 18.75C35.1987 18.75 34.1155 19.0206 33.1419 19.5086C33.0923 18.5995 32.9589 17.7136 32.7498 16.8592L32.7451 16.8612C31.2643 10.7032 25.9123 6.25 19.7004 6.25C12.3778 6.25 6.25 12.4382 6.25 20.3125C6.25 26.6652 10.2384 31.9205 15.625 33.7143V36.9766C8.44121 35.0934 3.125 28.3467 3.125 20.3125C3.125 10.8201 10.5461 3.125 19.7004 3.125C22.9105 3.125 25.9075 4.07121 28.446 5.70933C30.3938 4.09521 32.8945 3.125 35.6218 3.125C41.8369 3.125 46.8751 8.16326 46.8751 14.3783C46.8751 16.622 46.2185 18.7124 45.0868 20.4677C46.2161 22.2093 46.875 24.3061 46.875 26.5625ZM42.8977 18.0059C43.4432 16.9139 43.7501 15.6819 43.7501 14.3783C43.7501 9.88915 40.111 6.25 35.6218 6.25C33.8926 6.25 32.2895 6.78998 30.972 7.71052C33.1747 9.82986 34.8209 12.5626 35.6578 15.6467C35.8791 15.6323 36.1023 15.625 36.327 15.625C38.8115 15.625 41.0953 16.5157 42.8977 18.0059ZM21.8783 42.9001C21.8785 43.4251 21.4753 43.7533 21.097 43.7533C20.7186 43.7533 20.3153 43.4251 20.3151 42.9001C20.3149 42.2308 20.5864 41.3183 21.0537 40.3027C21.2103 40.6321 21.3526 40.9588 21.4743 41.2762C21.7795 42.0723 21.8782 42.6126 21.8783 42.9001ZM21.0941 34.375C21.0941 34.375 20.1607 35.516 19.2068 37.1207C18.2094 38.7983 17.1895 40.9828 17.1901 42.9001C17.1908 45.0972 18.9404 46.8783 21.0979 46.8783C23.2555 46.8783 25.004 45.0972 25.0033 42.9001C25.0028 41.1529 23.9344 38.9027 22.9149 37.1528C21.9841 35.5554 21.0941 34.375 21.0941 34.375ZM30.472 39.0658C30.8503 39.0658 31.2535 38.7376 31.2533 38.2126C31.2532 37.9251 31.1545 37.3848 30.8493 36.5887C30.7276 36.2713 30.5853 35.9446 30.4287 35.6152C29.9614 36.6308 29.6899 37.5433 29.6901 38.2126C29.6903 38.7376 30.0936 39.0658 30.472 39.0658ZM28.5818 32.4332C29.5357 30.8285 30.4691 29.6875 30.4691 29.6875C30.4691 29.6875 31.3591 30.8679 32.2899 32.4653C33.3094 34.2152 34.3778 36.4654 34.3783 38.2126C34.379 40.4097 32.6305 42.1908 30.4729 42.1908C28.3154 42.1908 26.5658 40.4097 26.5651 38.2126C26.5645 36.2953 27.5844 34.1108 28.5818 32.4332Z" fill="#AF807B"/>
</svg>
