<svg width="50" height="50" viewBox="0 0 50 50" fill="none" xmlns="http://www.w3.org/2000/svg">
<path fill-rule="evenodd" clip-rule="evenodd" d="M3.125 20.3125C3.125 28.3467 8.44121 35.0934 15.625 36.9766V33.7143C10.2384 31.9205 6.25 26.6652 6.25 20.3125C6.25 12.4382 12.3778 6.25 19.7004 6.25C25.9123 6.25 31.2643 10.7032 32.7451 16.8612L32.7498 16.8592C32.9589 17.7136 33.0923 18.5995 33.1419 19.5086C34.1155 19.0206 35.1987 18.75 36.327 18.75C40.3208 18.75 43.75 22.14 43.75 26.5625C43.75 30.954 40.3687 34.3274 36.4109 34.3744V34.375H35.9375V37.4926C36.0668 37.4975 36.1966 37.4999 36.327 37.4999C42.1525 37.4999 46.875 32.6031 46.875 26.5625C46.875 20.5219 42.1525 15.625 36.327 15.625C36.1023 15.625 35.8791 15.6323 35.6578 15.6467C33.697 8.42151 27.2952 3.125 19.7004 3.125C10.5461 3.125 3.125 10.8201 3.125 20.3125ZM26.8249 25.6958L20.5749 35.0708L18.9554 37.5H21.875H26.6316L21.65 44.3977L24.1834 46.2273L30.9542 36.8523L32.7434 34.375H29.6875H24.7946L29.4251 27.4292L26.8249 25.6958Z" fill="#AF807B"/>
</svg>
