<svg width="50" height="50" viewBox="0 0 50 50" fill="none" xmlns="http://www.w3.org/2000/svg">
<path fill-rule="evenodd" clip-rule="evenodd" d="M21.8664 25.0019L13.8766 29.675L7.5433 26.7678L6.24323 29.6277L10.5653 31.6117L8.18793 33.0022L9.73525 35.7173L12.1122 34.327L11.6473 39.1101L14.7422 39.3994L15.4235 32.3903L23.417 27.7149V37.1138L17.7609 41.219L19.5965 43.7481L23.417 40.9751V43.75H26.542V40.975L30.3628 43.7481L32.1984 41.219L26.542 37.1137V27.7366L34.5534 32.4224L35.2348 39.4323L38.3297 39.143L37.8647 34.3591L40.2422 35.7497L41.7895 33.0346L39.4124 31.6443L43.7338 29.6606L42.4337 26.8007L36.1011 29.7076L28.0557 25.0019L36.0763 20.3107L42.4507 23.2367L43.7508 20.3768L39.3876 18.374L41.7927 16.9673L40.2453 14.2522L37.8862 15.632L38.3467 10.8945L35.2519 10.6051L34.575 17.5687L26.542 22.2671V12.918L32.2347 8.78636L30.3991 6.25728L26.542 9.0567V6.25H23.417V9.00384L19.6328 6.25728L17.7972 8.78636L23.417 12.8652V22.2888L15.448 17.6278L14.7622 10.5726L11.6674 10.862L12.1368 15.6911L9.73212 14.2846L8.18479 16.9997L10.5438 18.3794L6.26331 20.3443L7.56338 23.2042L13.8551 20.3162L21.8664 25.0019Z" fill="#AF807B"/>
</svg>
