<svg width="98" height="98" viewBox="0 0 98 98" fill="none" xmlns="http://www.w3.org/2000/svg">
<rect x="0.175537" y="0.143066" width="97.8244" height="97.8244" rx="17" fill="#FD4859"/>
<ellipse cx="49.0878" cy="49.4497" rx="30.8523" ry="31.9507" stroke="white" stroke-width="4"/>
<path d="M54.4298 36.1032L53.7317 35H49.5075V44.9359L49.4931 54.641C49.5003 54.7131 49.5075 54.7924 49.5075 54.8645C49.5075 57.2944 47.5357 59.2772 45.1033 59.2772C42.671 59.2772 40.6992 57.3016 40.6992 54.8645C40.6992 52.4346 42.671 50.4518 45.1033 50.4518C45.6071 50.4518 46.0964 50.5455 46.5498 50.7041V45.8588C46.082 45.7795 45.5999 45.7362 45.1033 45.7362C40.0875 45.7434 36 49.8389 36 54.8717C36 59.9045 40.0875 64 45.1105 64C50.1336 64 54.2211 59.9045 54.2211 54.8717V43.3279C56.0417 45.1522 58.3949 46.9331 61 47.5027V42.5492C58.1718 41.2946 55.3581 37.5885 54.4298 36.1032Z" stroke="white" stroke-width="4"/>
</svg>
