<svg width="99" height="98" viewBox="0 0 99 98" fill="none" xmlns="http://www.w3.org/2000/svg">
<rect x="0.725098" y="0.143066" width="97.8244" height="97.8244" rx="17" fill=""/>
<ellipse cx="49.6373" cy="49.4497" rx="30.8523" ry="31.9507" stroke="white" stroke-width="4"/>
<path d="M37.5973 57.6098C40.2703 57.7686 42.6078 57.1089 44.8873 55.362C42.5846 54.9466 40.9878 53.8349 40.1199 51.5382C40.791 51.4405 41.3812 51.6237 42.0755 51.3305C39.8075 50.2799 38.3379 48.704 38.28 45.9797C38.9975 46.0408 39.5413 46.5416 40.3976 46.4683C38.3147 44.3182 37.6783 41.9727 38.9859 39.1262C41.1613 41.765 43.7071 43.5608 46.8198 44.4038C46.9933 44.4526 47.1553 44.5015 47.3289 44.5381C48.1273 44.7336 49.0762 45.149 49.5622 45.0879C50.3954 44.9779 49.5622 43.964 49.7705 42.6446C50.4301 38.5398 54.7115 36.6707 57.8821 39.0774C58.8078 39.7859 59.5368 39.7737 60.4509 39.3461C60.9254 39.1262 61.4114 38.9063 61.9784 38.6498C61.8511 39.8226 60.9948 40.47 60.3121 41.3374C61.0874 41.5207 61.7122 41.2885 62.4297 41.0442C62.1867 41.8872 61.5849 42.3636 61.0411 42.8278C60.4741 43.3043 60.2542 43.8051 60.2311 44.587C59.8839 56.4248 47.1438 65.575 38.4305 58.2939C37.5857 57.5854 38.4073 58.2939 37.5973 57.6098Z" stroke="white" stroke-width="4"/>
</svg>
